<svg width="720" height="1026" viewBox="0 0 720 1026" fill="none" xmlns="http://www.w3.org/2000/svg">
<rect width="720" height="1024" fill="#6172F3"/>
<circle cx="360" cy="512" r="303" fill="url(#paint0_radial_25_15420)" fill-opacity="0.2"/>
<circle cx="360" cy="512" r="303" fill="url(#paint1_linear_25_15420)" fill-opacity="0.2"/>
<circle cx="360" cy="511" r="264" fill="url(#paint2_radial_25_15420)" fill-opacity="0.2"/>
<circle cx="360" cy="511" r="264" fill="url(#paint3_linear_25_15420)" fill-opacity="0.2"/>
<text fill="#E0EAFF" xml:space="preserve" style="white-space: pre" font-family="Roboto" font-size="20" font-weight="bold" letter-spacing="0em"><tspan x="291.385" y="883.836">Join Medisync!</tspan></text>
<text fill="#E0EAFF" fill-opacity="0.75" xml:space="preserve" style="white-space: pre" font-family="Roboto" font-size="16" font-weight="500" letter-spacing="0em"><tspan x="60.9062" y="907.469">Securely transfer health data and medical records between physicians and patients.</tspan></text>
<path d="M275.795 608.973C358.76 608.973 426.016 541.786 426.016 458.907C426.016 376.028 358.76 308.841 275.795 308.841C192.831 308.841 125.575 376.028 125.575 458.907C125.575 541.786 192.831 608.973 275.795 608.973Z" fill="#F2F2F2"/>
<path d="M450.015 604.533C465.725 604.533 478.46 591.811 478.46 576.118C478.46 560.425 465.725 547.703 450.015 547.703C434.306 547.703 421.571 560.425 421.571 576.118C421.571 591.811 434.306 604.533 450.015 604.533Z" fill="#F2F2F2"/>
<path d="M593.125 668.466C599.507 668.466 604.68 663.298 604.68 656.923C604.68 650.548 599.507 645.379 593.125 645.379C586.743 645.379 581.569 650.548 581.569 656.923C581.569 663.298 586.743 668.466 593.125 668.466Z" fill="#F2F2F2"/>
<path d="M395.882 652.487C324.084 652.491 261.615 598.985 252.386 526.008L254.15 525.785C263.264 597.862 324.973 650.707 395.883 650.711C401.908 650.711 407.927 650.331 413.904 649.575C492.113 639.705 547.702 568.114 537.822 489.986L539.586 489.763C549.588 568.862 493.308 641.345 414.127 651.337C408.076 652.102 401.982 652.486 395.882 652.487Z" fill="#3F3D56"/>
<path d="M399.737 682.188H371.468C370.864 682.189 370.267 682.054 369.723 681.792C369.179 681.53 368.701 681.149 368.326 680.676C367.955 680.215 367.693 679.677 367.56 679.101C367.428 678.525 367.427 677.926 367.559 677.35C370.241 665.523 370.083 653.23 367.097 641.475C366.893 640.664 366.951 639.808 367.262 639.031C367.574 638.254 368.123 637.595 368.831 637.148C378.611 631.096 389.26 631.285 401.389 637.727C401.94 638.017 402.417 638.43 402.782 638.935C403.147 639.439 403.391 640.021 403.494 640.635C405.502 653.255 405.573 666.108 403.702 678.75C403.569 679.705 403.094 680.58 402.365 681.212C401.636 681.844 400.703 682.191 399.737 682.188Z" fill="#A4BCFD"/>
<path d="M270.85 531.234H242.581C241.977 531.235 241.38 531.1 240.836 530.838C240.292 530.576 239.814 530.195 239.439 529.722C239.068 529.261 238.806 528.723 238.673 528.147C238.54 527.571 238.54 526.972 238.672 526.396C241.364 514.528 241.195 502.191 238.178 490.401C237.988 489.625 238.034 488.81 238.311 488.06C238.588 487.31 239.083 486.66 239.733 486.194C254.27 475.75 265.718 476.053 273.759 487.096C274.122 487.6 274.362 488.18 274.463 488.792C276.611 501.696 276.73 514.856 274.815 527.796C274.682 528.751 274.207 529.626 273.478 530.258C272.749 530.89 271.815 531.237 270.85 531.234Z" fill="#CCCCCC"/>
<path d="M386.529 655.683H376.804C376.267 655.682 375.752 655.468 375.373 655.089C374.994 654.709 374.781 654.194 374.781 653.658C374.781 653.121 374.994 652.607 375.373 652.227C375.752 651.847 376.267 651.633 376.804 651.632H386.529C387.067 651.632 387.582 651.846 387.963 652.226C388.343 652.605 388.556 653.121 388.556 653.658C388.556 654.195 388.343 654.71 387.963 655.09C387.582 655.47 387.067 655.683 386.529 655.683Z" fill="white"/>
<path d="M398.419 663.687H376.804C376.267 663.686 375.752 663.472 375.373 663.092C374.994 662.712 374.781 662.198 374.781 661.661C374.781 661.125 374.994 660.61 375.373 660.231C375.752 659.851 376.267 659.637 376.804 659.636H398.419C398.956 659.637 399.471 659.851 399.85 660.231C400.23 660.61 400.443 661.125 400.443 661.661C400.443 662.198 400.23 662.712 399.85 663.092C399.471 663.472 398.956 663.686 398.419 663.687Z" fill="white"/>
<path d="M262.086 502.953H252.361C251.824 502.952 251.309 502.738 250.93 502.359C250.551 501.979 250.338 501.464 250.338 500.928C250.338 500.391 250.551 499.877 250.93 499.497C251.309 499.117 251.824 498.903 252.361 498.902H262.086C262.623 498.903 263.138 499.117 263.517 499.497C263.896 499.877 264.109 500.391 264.109 500.928C264.109 501.464 263.896 501.979 263.517 502.359C263.138 502.738 262.623 502.952 262.086 502.953Z" fill="white"/>
<path d="M262.086 510.057H252.361C251.824 510.056 251.309 509.842 250.93 509.462C250.551 509.082 250.338 508.568 250.338 508.031C250.338 507.495 250.551 506.98 250.93 506.601C251.309 506.221 251.824 506.007 252.361 506.006H262.086C262.623 506.007 263.138 506.221 263.517 506.601C263.896 506.98 264.109 507.495 264.109 508.031C264.109 508.568 263.896 509.082 263.517 509.462C263.138 509.842 262.623 510.056 262.086 510.057Z" fill="white"/>
<path d="M262.086 517.161H252.361C251.824 517.16 251.309 516.946 250.93 516.566C250.551 516.186 250.338 515.672 250.338 515.135C250.338 514.599 250.551 514.084 250.93 513.705C251.309 513.325 251.824 513.111 252.361 513.11H262.086C262.623 513.111 263.138 513.325 263.517 513.705C263.896 514.084 264.109 514.599 264.109 515.135C264.109 515.672 263.896 516.186 263.517 516.566C263.138 516.946 262.623 517.16 262.086 517.161Z" fill="white"/>
<path d="M651.327 564.598H560.959C558.537 564.595 556.215 563.633 554.503 561.922C552.79 560.211 551.827 557.892 551.824 555.472V499.871C551.827 497.452 552.79 495.133 554.503 493.422C556.215 491.711 558.537 490.749 560.959 490.746H651.327C653.749 490.749 656.07 491.711 657.783 493.422C659.495 495.133 660.459 497.452 660.462 499.871V555.472C660.459 557.892 659.495 560.211 657.783 561.922C656.07 563.633 653.749 564.595 651.327 564.598Z" fill="#E6E6E6"/>
<path d="M615.422 557.436H567.311C565.043 557.433 562.869 556.532 561.265 554.93C559.661 553.328 558.758 551.156 558.756 548.89V506.454C558.758 504.188 559.661 502.016 561.265 500.414C562.869 498.811 565.043 497.91 567.311 497.908H644.975C647.243 497.91 649.417 498.811 651.021 500.414C652.625 502.016 653.527 504.188 653.53 506.454V519.368C653.518 529.461 649.5 539.137 642.356 546.274C635.212 553.41 625.525 557.425 615.422 557.436Z" fill="white"/>
<path d="M637.227 521.145H575.059C574.521 521.145 574.005 520.931 573.625 520.551C573.245 520.172 573.031 519.656 573.031 519.119C573.031 518.582 573.245 518.067 573.625 517.687C574.005 517.307 574.521 517.094 575.059 517.094H637.227C637.765 517.094 638.281 517.307 638.661 517.687C639.041 518.067 639.255 518.582 639.255 519.119C639.255 519.656 639.041 520.172 638.661 520.551C638.281 520.931 637.765 521.145 637.227 521.145Z" fill="#A4BCFD"/>
<path d="M584.783 529.148H575.059C574.522 529.147 574.007 528.933 573.628 528.553C573.248 528.173 573.035 527.659 573.035 527.122C573.035 526.586 573.248 526.071 573.628 525.691C574.007 525.312 574.522 525.098 575.059 525.097H584.783C585.32 525.098 585.835 525.312 586.214 525.691C586.594 526.071 586.807 526.586 586.807 527.122C586.807 527.659 586.594 528.173 586.214 528.553C585.835 528.933 585.32 529.147 584.783 529.148Z" fill="#A4BCFD"/>
<path d="M602.007 537.152H575.059C574.521 537.152 574.005 536.938 573.625 536.558C573.245 536.179 573.031 535.663 573.031 535.126C573.031 534.589 573.245 534.074 573.625 533.694C574.005 533.314 574.521 533.101 575.059 533.101H602.007C602.545 533.101 603.061 533.314 603.441 533.694C603.821 534.074 604.035 534.589 604.035 535.126C604.035 535.663 603.821 536.179 603.441 536.558C603.061 536.938 602.545 537.152 602.007 537.152Z" fill="#A4BCFD"/>
<path d="M548.671 508.735C559.228 508.735 567.787 500.185 567.787 489.638C567.787 479.091 559.228 470.542 548.671 470.542C538.113 470.542 529.554 479.091 529.554 489.638C529.554 500.185 538.113 508.735 548.671 508.735Z" fill="#3F3D56"/>
<path d="M332.273 344.368C333.539 337.952 336.057 331.847 339.685 326.402C343.312 320.957 347.977 316.28 353.414 312.636C364.394 305.278 377.851 302.579 390.823 305.132C397.247 306.396 403.358 308.912 408.808 312.535C414.258 316.159 418.941 320.819 422.588 326.251C426.235 331.682 428.776 337.778 430.065 344.19C431.354 350.602 431.366 357.205 430.1 363.622L428.355 363.278C430.82 350.781 428.214 337.818 421.111 327.24C414.008 316.663 402.99 309.337 390.48 306.875C377.97 304.413 364.993 307.016 354.405 314.112C343.816 321.207 336.483 332.214 334.018 344.712L332.273 344.368Z" fill="#3F3D56"/>
<path d="M351.204 375.788L322.959 376.957C322.356 376.983 321.754 376.873 321.2 376.634C320.645 376.395 320.152 376.033 319.757 375.576C319.368 375.132 319.084 374.604 318.927 374.034C318.771 373.464 318.745 372.866 318.853 372.285C321.021 360.478 320.389 348.328 317.009 336.808C316.748 335.927 316.801 334.983 317.159 334.137C317.517 333.291 318.157 332.594 318.971 332.167C330.541 326.163 341.381 325.858 351.189 331.261C351.703 331.54 352.15 331.928 352.499 332.397C352.848 332.866 353.09 333.406 353.209 333.978C355.762 346.548 356.374 359.435 355.023 372.19C354.93 373.149 354.492 374.043 353.79 374.704C353.087 375.366 352.169 375.751 351.204 375.788Z" fill="#A4BCFD"/>
<path d="M350.009 357.321L328.412 358.214C328.146 358.226 327.88 358.184 327.63 358.093C327.38 358.002 327.15 357.862 326.954 357.682C326.758 357.501 326.599 357.284 326.487 357.043C326.375 356.802 326.312 356.54 326.301 356.275C326.29 356.009 326.331 355.743 326.423 355.493C326.515 355.243 326.655 355.014 326.835 354.818C327.016 354.623 327.233 354.464 327.475 354.352C327.717 354.241 327.978 354.178 328.245 354.167L349.841 353.273C350.107 353.262 350.373 353.304 350.623 353.395C350.873 353.487 351.102 353.627 351.298 353.807C351.494 353.987 351.653 354.204 351.765 354.445C351.877 354.686 351.94 354.947 351.951 355.213C351.962 355.479 351.921 355.744 351.829 355.994C351.737 356.244 351.597 356.473 351.417 356.669C351.237 356.865 351.02 357.023 350.778 357.135C350.536 357.247 350.275 357.31 350.009 357.321Z" fill="white"/>
<path d="M349.715 350.223L328.118 351.117C327.581 351.139 327.057 350.947 326.661 350.583C326.265 350.219 326.031 349.714 326.008 349.177C325.986 348.64 326.178 348.116 326.542 347.721C326.907 347.326 327.413 347.091 327.95 347.069L349.547 346.176C350.084 346.153 350.609 346.345 351.004 346.709C351.4 347.073 351.635 347.579 351.657 348.116C351.679 348.652 351.487 349.176 351.123 349.571C350.759 349.966 350.252 350.201 349.715 350.223Z" fill="white"/>
<path d="M536.053 366.852H445.685C443.263 366.849 440.942 365.887 439.229 364.176C437.517 362.465 436.553 360.146 436.551 357.726V302.125C436.553 299.706 437.517 297.387 439.229 295.676C440.942 293.965 443.263 293.003 445.685 293H536.053C538.475 293.003 540.797 293.965 542.509 295.676C544.222 297.387 545.185 299.706 545.188 302.125V357.726C545.185 360.146 544.222 362.465 542.509 364.176C540.797 365.887 538.475 366.849 536.053 366.852Z" fill="#E6E6E6"/>
<path d="M500.149 359.69H452.038C449.769 359.687 447.595 358.786 445.991 357.184C444.387 355.582 443.485 353.41 443.482 351.144V308.708C443.485 306.442 444.387 304.27 445.991 302.667C447.595 301.065 449.769 300.164 452.038 300.162H529.701C531.969 300.164 534.144 301.065 535.748 302.668C537.351 304.27 538.254 306.442 538.256 308.708V321.622C538.245 331.715 534.226 341.391 527.082 348.528C519.938 355.664 510.252 359.679 500.149 359.69Z" fill="white"/>
<path d="M521.953 323.399H459.785C459.247 323.399 458.732 323.185 458.351 322.805C457.971 322.425 457.757 321.91 457.757 321.373C457.757 320.836 457.971 320.321 458.351 319.941C458.732 319.561 459.247 319.348 459.785 319.348H521.953C522.491 319.348 523.007 319.561 523.387 319.941C523.767 320.321 523.981 320.836 523.981 321.373C523.981 321.91 523.767 322.425 523.387 322.805C523.007 323.185 522.491 323.399 521.953 323.399Z" fill="#A4BCFD"/>
<path d="M469.51 331.402H459.785C459.248 331.401 458.733 331.187 458.354 330.807C457.975 330.428 457.762 329.913 457.762 329.377C457.762 328.84 457.975 328.326 458.354 327.946C458.733 327.566 459.248 327.352 459.785 327.351H469.51C470.047 327.352 470.561 327.566 470.941 327.946C471.32 328.326 471.533 328.84 471.533 329.377C471.533 329.913 471.32 330.428 470.941 330.807C470.561 331.187 470.047 331.401 469.51 331.402Z" fill="#A4BCFD"/>
<path d="M486.734 339.406H459.785C459.247 339.406 458.731 339.192 458.351 338.812C457.971 338.432 457.757 337.917 457.757 337.38C457.757 336.843 457.971 336.328 458.351 335.948C458.731 335.568 459.247 335.354 459.785 335.354H486.734C487.271 335.356 487.785 335.57 488.165 335.949C488.544 336.329 488.757 336.844 488.757 337.38C488.757 337.917 488.544 338.431 488.165 338.811C487.785 339.191 487.271 339.404 486.734 339.406Z" fill="#A4BCFD"/>
<path d="M447.291 376.477C452.864 367.52 450.114 355.745 441.148 350.177C432.181 344.609 420.394 347.356 414.82 356.314C409.247 365.271 411.997 377.046 420.963 382.614C429.93 388.182 441.717 385.434 447.291 376.477Z" fill="#3F3D56"/>
<path d="M176.401 515.373C168.558 494.66 169.273 471.684 178.388 451.498C187.503 431.312 204.272 415.57 225.005 407.735C245.739 399.9 268.739 400.614 288.945 409.72C309.152 418.825 324.91 435.577 332.753 456.289L331.09 456.918C327.289 446.88 321.546 437.689 314.19 429.869C306.833 422.048 298.007 415.752 288.214 411.339C278.422 406.926 267.855 404.484 257.118 404.15C246.38 403.817 235.682 405.6 225.634 409.397C215.587 413.194 206.386 418.93 198.557 426.279C190.729 433.628 184.426 442.446 180.009 452.228C175.592 462.011 173.146 472.566 172.813 483.293C172.479 494.019 174.264 504.706 178.065 514.744L176.401 515.373Z" fill="#3F3D56"/>
<path d="M249.517 432.67H221.248C220.644 432.671 220.047 432.536 219.503 432.274C218.959 432.012 218.481 431.63 218.106 431.158C217.735 430.697 217.473 430.159 217.34 429.583C217.207 429.007 217.207 428.408 217.339 427.832C220.015 416.033 219.864 403.769 216.897 392.039C216.687 391.209 216.751 390.333 217.081 389.543C217.411 388.752 217.988 388.09 218.726 387.655C228.966 381.7 239.902 381.881 251.228 388.196C251.764 388.488 252.227 388.899 252.58 389.396C252.933 389.894 253.168 390.466 253.266 391.068C255.282 403.704 255.355 416.574 253.482 429.232C253.349 430.187 252.874 431.062 252.145 431.694C251.416 432.326 250.482 432.672 249.517 432.67Z" fill="#A4BCFD"/>
<path d="M236.308 405.277H226.584C226.047 405.276 225.532 405.062 225.153 404.682C224.773 404.303 224.56 403.788 224.56 403.252C224.56 402.715 224.773 402.201 225.153 401.821C225.532 401.441 226.047 401.227 226.584 401.226H236.308C236.845 401.227 237.36 401.441 237.739 401.821C238.119 402.201 238.332 402.715 238.332 403.252C238.332 403.788 238.119 404.303 237.739 404.682C237.36 405.062 236.845 405.276 236.308 405.277Z" fill="white"/>
<path d="M248.199 413.281H226.584C226.046 413.281 225.53 413.067 225.15 412.687C224.77 412.307 224.556 411.792 224.556 411.255C224.556 410.718 224.77 410.203 225.15 409.823C225.53 409.443 226.046 409.229 226.584 409.229H248.199C248.736 409.231 249.251 409.445 249.63 409.824C250.009 410.204 250.222 410.719 250.222 411.255C250.222 411.792 250.009 412.306 249.63 412.686C249.251 413.066 248.736 413.279 248.199 413.281Z" fill="white"/>
<path d="M156.503 514.254H66.1347C63.7129 514.251 61.391 513.289 59.6785 511.578C57.966 509.868 57.0027 507.548 57 505.129V449.528C57.0027 447.108 57.966 444.789 59.6785 443.078C61.391 441.367 63.7129 440.405 66.1347 440.402H156.503C158.924 440.405 161.246 441.367 162.959 443.078C164.671 444.789 165.635 447.108 165.637 449.528V505.129C165.635 507.548 164.671 509.868 162.959 511.578C161.246 513.289 158.924 514.251 156.503 514.254Z" fill="#E6E6E6"/>
<path d="M120.598 507.092H72.4871C70.2189 507.09 68.0443 506.189 66.4404 504.586C64.8365 502.984 63.9343 500.812 63.9316 498.546V456.11C63.9343 453.844 64.8365 451.672 66.4404 450.07C68.0443 448.468 70.2189 447.566 72.4871 447.564H150.151C152.419 447.566 154.593 448.468 156.197 450.07C157.801 451.672 158.703 453.844 158.706 456.11V469.024C158.694 479.117 154.676 488.793 147.531 495.93C140.387 503.067 130.701 507.081 120.598 507.092Z" fill="white"/>
<path d="M142.403 470.801H80.2343C79.6966 470.801 79.1809 470.588 78.8006 470.208C78.4204 469.828 78.2068 469.313 78.2068 468.775C78.2068 468.238 78.4204 467.723 78.8006 467.343C79.1809 466.963 79.6966 466.75 80.2343 466.75H142.403C142.941 466.75 143.456 466.963 143.837 467.343C144.217 467.723 144.43 468.238 144.43 468.775C144.43 469.313 144.217 469.828 143.837 470.208C143.456 470.588 142.941 470.801 142.403 470.801Z" fill="#A4BCFD"/>
<path d="M89.9591 478.804H80.2343C79.6973 478.803 79.1826 478.589 78.8033 478.209C78.424 477.83 78.2109 477.315 78.2109 476.778C78.2109 476.242 78.424 475.727 78.8033 475.348C79.1826 474.968 79.6973 474.754 80.2343 474.753H89.9591C90.4961 474.754 91.0108 474.968 91.3901 475.348C91.7694 475.727 91.9825 476.242 91.9825 476.778C91.9825 477.315 91.7694 477.83 91.3901 478.209C91.0108 478.589 90.4961 478.803 89.9591 478.804Z" fill="#A4BCFD"/>
<path d="M107.183 486.808H80.2343C79.6973 486.807 79.1826 486.593 78.8033 486.213C78.424 485.833 78.2109 485.319 78.2109 484.782C78.2109 484.246 78.424 483.731 78.8033 483.352C79.1826 482.972 79.6973 482.758 80.2343 482.757H107.183C107.721 482.757 108.236 482.97 108.617 483.35C108.997 483.73 109.211 484.245 109.211 484.782C109.211 485.32 108.997 485.835 108.617 486.215C108.236 486.595 107.721 486.808 107.183 486.808Z" fill="#A4BCFD"/>
<path d="M192.183 522.103C197.757 513.146 195.006 501.371 186.04 495.803C177.073 490.235 165.286 492.982 159.712 501.94C154.139 510.897 156.889 522.672 165.856 528.24C174.822 533.808 186.609 531.06 192.183 522.103Z" fill="#3F3D56"/>
<path d="M346.405 485.948H318.135C317.531 485.949 316.935 485.814 316.391 485.552C315.847 485.29 315.369 484.908 314.993 484.436C314.622 483.975 314.361 483.437 314.228 482.861C314.095 482.285 314.095 481.686 314.226 481.11C316.898 469.331 316.752 457.089 313.8 445.378C313.591 444.536 313.662 443.649 314.003 442.852C314.343 442.054 314.935 441.389 315.688 440.958C329.421 433.105 340.295 433.321 348.932 441.621C349.537 442.213 349.936 442.983 350.069 443.819C352.167 456.623 352.269 469.675 350.37 482.51C350.237 483.465 349.762 484.339 349.033 484.971C348.304 485.603 347.37 485.95 346.405 485.948Z" fill="#FF6584"/>
<path d="M334.974 459.443H325.249C324.712 459.442 324.197 459.228 323.818 458.848C323.439 458.469 323.226 457.954 323.226 457.418C323.226 456.881 323.439 456.367 323.818 455.987C324.197 455.607 324.712 455.393 325.249 455.392H334.974C335.511 455.393 336.026 455.607 336.405 455.987C336.784 456.367 336.997 456.881 336.997 457.418C336.997 457.954 336.784 458.469 336.405 458.848C336.026 459.228 335.511 459.442 334.974 459.443Z" fill="white"/>
<path d="M346.864 467.447H325.249C324.711 467.447 324.196 467.233 323.815 466.853C323.435 466.473 323.221 465.958 323.221 465.421C323.221 464.884 323.435 464.369 323.815 463.989C324.196 463.609 324.711 463.396 325.249 463.396H346.864C347.401 463.397 347.916 463.611 348.295 463.99C348.675 464.37 348.888 464.885 348.888 465.421C348.888 465.958 348.675 466.472 348.295 466.852C347.916 467.232 347.401 467.445 346.864 467.447Z" fill="white"/>
<defs>
<radialGradient id="paint0_radial_25_15420" cx="0" cy="0" r="1" gradientUnits="userSpaceOnUse" gradientTransform="translate(360 512) rotate(90) scale(303)">
<stop stop-color="#444CE7" stop-opacity="0.81"/>
<stop offset="1" stop-color="#444CE7" stop-opacity="0.29"/>
</radialGradient>
<linearGradient id="paint1_linear_25_15420" x1="232.047" y1="209" x2="417.757" y2="806.559" gradientUnits="userSpaceOnUse">
<stop stop-color="#444CE7" stop-opacity="0.81"/>
<stop offset="1" stop-opacity="0"/>
</linearGradient>
<radialGradient id="paint2_radial_25_15420" cx="0" cy="0" r="1" gradientUnits="userSpaceOnUse" gradientTransform="translate(360 511) rotate(90) scale(264)">
<stop stop-color="#444CE7" stop-opacity="0.81"/>
<stop offset="1" stop-color="#444CE7" stop-opacity="0.29"/>
</radialGradient>
<linearGradient id="paint3_linear_25_15420" x1="360" y1="247" x2="413.333" y2="745.667" gradientUnits="userSpaceOnUse">
<stop stop-color="#A4BCFD"/>
<stop offset="1" stop-color="#444CE7" stop-opacity="0.81"/>
</linearGradient>
</defs>
</svg>
