<svg width="161" height="33" viewBox="0 0 161 33" fill="none" xmlns="http://www.w3.org/2000/svg">
<path d="M10.992 4.77637H4.95715V16.0658H10.992V4.77637Z" fill="#00ABB2"/>
<path d="M27.8032 9.98682H16.8113V16.0658H27.8032V9.98682Z" fill="#015963"/>
<path d="M22.8461 21.9277H16.8113V33.0001H22.8461V21.9277Z" fill="#00ABB2"/>
<path d="M10.992 21.9277H0V28.0067H10.992V21.9277Z" fill="#015963"/>
<path d="M38.2175 27.1381V13.5491H41.8315V15.3276H41.8591C42.9443 14.0122 44.2868 13.3545 45.8869 13.3545C47.7629 13.3545 49.0871 14.0678 49.8595 15.4943H49.9147C51.0182 14.0678 52.5907 13.3545 54.6322 13.3545C57.7955 13.3545 59.3773 15.3276 59.3773 19.2737V27.1381H55.7633V20.1352C55.7633 17.7823 54.9816 16.6059 53.4183 16.6059C52.6276 16.6059 51.9655 16.9394 51.432 17.6063C50.9171 18.2548 50.6596 19.1718 50.6596 20.3575V27.1381H47.0456V20.1352C47.0456 17.7823 46.2548 16.6059 44.673 16.6059C43.8271 16.6059 43.1374 16.9394 42.604 17.6063C42.0891 18.2548 41.8315 19.1718 41.8315 20.3575V27.1381H38.2175ZM75.3133 20.2185C75.3133 20.6446 75.2857 21.08 75.2305 21.5246H65.7679C65.9886 22.3399 66.4117 22.979 67.037 23.4421C67.6622 23.9052 68.4256 24.1368 69.3267 24.1368C70.6878 24.1368 71.782 23.6273 72.6097 22.6084L74.9546 24.8038C73.6304 26.5267 71.6717 27.3882 69.0784 27.3882C67.0001 27.3882 65.2989 26.7397 63.9747 25.443C62.6688 24.1462 62.016 22.4417 62.016 20.3297C62.016 18.2733 62.6505 16.5966 63.9196 15.2998C65.2069 14.003 66.8531 13.3545 68.8577 13.3545C70.752 13.3545 72.2969 14.003 73.4925 15.2998C74.7063 16.5781 75.3133 18.2177 75.3133 20.2185ZM68.8302 16.5225C68.0946 16.5225 67.4508 16.7356 66.899 17.1617C66.3656 17.5693 65.9979 18.1528 65.7955 18.9124H71.7269C71.3223 17.3192 70.3568 16.5225 68.8302 16.5225ZM83.8004 27.3882C81.9244 27.3882 80.3795 26.7397 79.1656 25.443C77.9518 24.1462 77.3448 22.4601 77.3448 20.3853C77.3448 18.3474 77.9518 16.6707 79.1656 15.3554C80.3795 14.0215 81.8968 13.3545 83.7176 13.3545C85.428 13.3545 86.7891 13.9474 87.8006 15.1331H87.8557V6.68506H91.4421V27.1381H87.9937V25.4707H87.9661C86.9913 26.7491 85.6028 27.3882 83.8004 27.3882ZM81.9796 23.0808C82.6234 23.7662 83.451 24.1091 84.4625 24.1091C85.4739 24.1091 86.3108 23.7662 86.9729 23.0808C87.6534 22.3954 87.9937 21.5061 87.9937 20.4131C87.9937 19.32 87.6626 18.4122 87.0005 17.6897C86.3384 16.9672 85.4925 16.6059 84.4625 16.6059C83.4693 16.6059 82.6417 16.9579 81.9796 17.6619C81.3358 18.3474 81.014 19.2644 81.014 20.4131C81.014 21.4876 81.3358 22.3768 81.9796 23.0808ZM97.0502 11.715C96.3881 11.715 95.8363 11.5019 95.3949 11.0758C94.9719 10.6312 94.7604 10.0939 94.7604 9.46401C94.7604 8.85264 94.9719 8.33391 95.3949 7.9078C95.8363 7.46316 96.3881 7.24085 97.0502 7.24085C97.694 7.24085 98.2365 7.46316 98.6779 7.9078C99.1193 8.33391 99.34 8.85264 99.34 9.46401C99.34 10.0939 99.1193 10.6312 98.6779 11.0758C98.2365 11.5019 97.694 11.715 97.0502 11.715ZM95.2018 27.1381V13.5491H98.8158V27.1381H95.2018ZM106.939 27.3882C104.824 27.3882 103.003 26.7213 101.476 25.3874L103.214 22.8585C104.336 23.8961 105.587 24.4147 106.966 24.4147C107.481 24.4147 107.877 24.3129 108.153 24.1091C108.447 23.9052 108.594 23.6366 108.594 23.3032C108.594 23.0253 108.419 22.7936 108.07 22.6084C107.739 22.4046 107.104 22.1453 106.166 21.8303C104.842 21.3857 103.812 20.8392 103.076 20.1907C102.359 19.5238 102 18.5882 102 17.384C102 16.1798 102.46 15.2072 103.38 14.4661C104.3 13.7251 105.467 13.3545 106.883 13.3545C108.704 13.3545 110.341 13.9196 111.794 15.0497L110.028 17.7453C109.054 16.7819 107.978 16.3002 106.801 16.3002C106.47 16.3002 106.175 16.3836 105.918 16.5503C105.66 16.7171 105.532 16.9672 105.532 17.3006C105.532 17.7638 106.194 18.2455 107.518 18.7457C108.254 19.0236 108.796 19.2366 109.146 19.3848C109.495 19.5145 109.909 19.7183 110.387 19.9962C110.865 20.2556 111.196 20.5149 111.38 20.7743C111.583 21.0337 111.757 21.3672 111.904 21.7747C112.07 22.1638 112.153 22.6269 112.153 23.1642C112.153 24.4241 111.702 25.443 110.801 26.2211C109.918 26.9992 108.631 27.3882 106.939 27.3882ZM116.035 32.6404L118.435 26.3044L113.028 13.5491H116.89L120.173 21.8859H120.228L123.29 13.5491H126.959L119.704 32.6404H116.035ZM129.198 27.1381V13.5491H132.812V15.2998H132.867C133.952 14.003 135.387 13.3545 137.17 13.3545C140.426 13.3545 142.053 15.2627 142.053 19.0792V27.1381H138.439V19.9962C138.439 18.755 138.228 17.8842 137.805 17.384C137.382 16.8653 136.729 16.6059 135.846 16.6059C134.908 16.6059 134.163 16.9301 133.612 17.5785C133.078 18.2084 132.812 19.1255 132.812 20.3297V27.1381H129.198ZM151.623 27.3882C149.6 27.3882 147.936 26.7397 146.63 25.443C145.324 24.1462 144.671 22.4601 144.671 20.3853C144.671 18.2918 145.324 16.5966 146.63 15.2998C147.936 14.003 149.637 13.3545 151.734 13.3545C152.837 13.3545 153.895 13.5676 154.906 13.9937C155.918 14.4013 156.764 15.0034 157.444 15.8L155.072 18.051C154.299 17.0876 153.269 16.6059 151.982 16.6059C150.897 16.6059 150.014 16.9579 149.334 17.6619C148.671 18.3474 148.34 19.2459 148.34 20.3575C148.34 21.4876 148.671 22.3954 149.334 23.0808C150.014 23.7662 150.897 24.1091 151.982 24.1091C153.306 24.1091 154.364 23.6182 155.155 22.6362L157.5 24.915C156.175 26.5639 154.217 27.3882 151.623 27.3882Z" fill="#111827"/>
</svg>
