<svg width="747" height="152" viewBox="0 0 747 152" fill="none" xmlns="http://www.w3.org/2000/svg">
<rect x="23" y="22" width="28" height="52" fill="#5B969C"/>
<rect x="78" y="46" width="51" height="28" fill="#9ABDC1"/>
<rect x="78" y="101" width="28" height="51" fill="#47888E"/>
<rect y="101" width="51" height="28" fill="#C2D7DA"/>
<path d="M177.32 125V62.408H194.088V70.6H194.216C199.251 64.5413 205.48 61.512 212.904 61.512C221.608 61.512 227.752 64.7973 231.336 71.368H231.592C236.712 64.7973 244.008 61.512 253.48 61.512C268.157 61.512 275.496 70.6 275.496 88.776V125H258.728V92.744C258.728 81.9067 255.101 76.488 247.848 76.488C244.179 76.488 241.107 78.024 238.632 81.096C236.243 84.0827 235.048 88.3067 235.048 93.768V125H218.28V92.744C218.28 81.9067 214.611 76.488 207.272 76.488C203.347 76.488 200.147 78.024 197.672 81.096C195.283 84.0827 194.088 88.3067 194.088 93.768V125H177.32ZM349.435 93.128C349.435 95.0907 349.307 97.096 349.051 99.144H305.147C306.171 102.899 308.134 105.843 311.035 107.976C313.936 110.109 317.478 111.176 321.659 111.176C327.974 111.176 333.051 108.829 336.891 104.136L347.771 114.248C341.627 122.184 332.539 126.152 320.507 126.152C310.864 126.152 302.971 123.165 296.827 117.192C290.768 111.219 287.739 103.368 287.739 93.64C287.739 84.168 290.683 76.4453 296.571 70.472C302.544 64.4987 310.182 61.512 319.483 61.512C328.272 61.512 335.44 64.4987 340.987 70.472C346.619 76.36 349.435 83.912 349.435 93.128ZM319.355 76.104C315.942 76.104 312.955 77.0853 310.395 79.048C307.92 80.9253 306.214 83.6133 305.275 87.112H332.795C330.918 79.7733 326.438 76.104 319.355 76.104ZM388.813 126.152C380.109 126.152 372.941 123.165 367.309 117.192C361.677 111.219 358.861 103.453 358.861 93.896C358.861 84.5093 361.677 76.7867 367.309 70.728C372.941 64.584 379.981 61.512 388.429 61.512C396.365 61.512 402.68 64.2427 407.373 69.704H407.629V30.792H424.269V125H408.269V117.32H408.141C403.618 123.208 397.176 126.152 388.813 126.152ZM380.365 106.312C383.352 109.469 387.192 111.048 391.885 111.048C396.578 111.048 400.461 109.469 403.533 106.312C406.69 103.155 408.269 99.0587 408.269 94.024C408.269 88.9893 406.733 84.808 403.661 81.48C400.589 78.152 396.664 76.488 391.885 76.488C387.277 76.488 383.437 78.1093 380.365 81.352C377.378 84.5093 375.885 88.7333 375.885 94.024C375.885 98.9733 377.378 103.069 380.365 106.312ZM450.289 53.96C447.217 53.96 444.657 52.9787 442.609 51.016C440.646 48.968 439.665 46.4933 439.665 43.592C439.665 40.776 440.646 38.3867 442.609 36.424C444.657 34.376 447.217 33.352 450.289 33.352C453.276 33.352 455.793 34.376 457.841 36.424C459.889 38.3867 460.913 40.776 460.913 43.592C460.913 46.4933 459.889 48.968 457.841 51.016C455.793 52.9787 453.276 53.96 450.289 53.96ZM441.713 125V62.408H458.481V125H441.713ZM496.169 126.152C486.356 126.152 477.908 123.08 470.825 116.936L478.889 105.288C484.094 110.067 489.897 112.456 496.297 112.456C498.686 112.456 500.521 111.987 501.801 111.048C503.166 110.109 503.849 108.872 503.849 107.336C503.849 106.056 503.038 104.989 501.417 104.136C499.881 103.197 496.937 102.003 492.585 100.552C486.441 98.504 481.662 95.9867 478.249 93C474.921 89.928 473.257 85.6187 473.257 80.072C473.257 74.5253 475.39 70.0453 479.657 66.632C483.924 63.2187 489.342 61.512 495.913 61.512C504.361 61.512 511.956 64.1147 518.697 69.32L510.505 81.736C505.982 77.2987 500.99 75.08 495.529 75.08C493.993 75.08 492.628 75.464 491.433 76.232C490.238 77 489.641 78.152 489.641 79.688C489.641 81.8213 492.713 84.04 498.857 86.344C502.27 87.624 504.788 88.6053 506.409 89.288C508.03 89.8853 509.95 90.824 512.169 92.104C514.388 93.2987 515.924 94.4933 516.777 95.688C517.716 96.8827 518.526 98.4187 519.209 100.296C519.977 102.088 520.361 104.221 520.361 106.696C520.361 112.499 518.27 117.192 514.089 120.776C509.993 124.36 504.02 126.152 496.169 126.152ZM538.372 150.344L549.508 121.16L524.42 62.408H542.34L557.572 100.808H557.828L572.036 62.408H589.06L555.396 150.344H538.372ZM599.445 125V62.408H616.213V70.472H616.469C621.504 64.4987 628.16 61.512 636.437 61.512C651.541 61.512 659.093 70.3013 659.093 87.88V125H642.325V92.104C642.325 86.3867 641.344 82.376 639.381 80.072C637.418 77.6827 634.389 76.488 630.293 76.488C625.941 76.488 622.485 77.9813 619.925 80.968C617.45 83.8693 616.213 88.0933 616.213 93.64V125H599.445ZM703.495 126.152C694.108 126.152 686.386 123.165 680.327 117.192C674.268 111.219 671.239 103.453 671.239 93.896C671.239 84.2533 674.268 76.4453 680.327 70.472C686.386 64.4987 694.279 61.512 704.007 61.512C709.127 61.512 714.034 62.4933 718.727 64.456C723.42 66.3333 727.346 69.1067 730.503 72.776L719.495 83.144C715.911 78.7067 711.132 76.488 705.159 76.488C700.124 76.488 696.028 78.1093 692.871 81.352C689.799 84.5093 688.263 88.648 688.263 93.768C688.263 98.9733 689.799 103.155 692.871 106.312C696.028 109.469 700.124 111.048 705.159 111.048C711.303 111.048 716.21 108.787 719.879 104.264L730.759 114.76C724.615 122.355 715.527 126.152 703.495 126.152Z" fill="#111827"/>
</svg>
