<svg width="1538" height="985" viewBox="0 0 1538 985" fill="none" xmlns="http://www.w3.org/2000/svg">
<rect width="1538" height="985" fill="white"/>
<rect x="419" y="377" width="28" height="52" fill="#FA65A9"/>
<rect x="474" y="401" width="51" height="28" fill="#00D9F8"/>
<rect x="474" y="456" width="28" height="51" fill="#06A9F6"/>
<rect x="396" y="456" width="51" height="28" fill="#FDD100"/>
<path d="M573.32 480V417.408H590.088V425.6H590.216C595.251 419.541 601.48 416.512 608.904 416.512C617.608 416.512 623.752 419.797 627.336 426.368H627.592C632.712 419.797 640.008 416.512 649.48 416.512C664.157 416.512 671.496 425.6 671.496 443.776V480H654.728V447.744C654.728 436.907 651.101 431.488 643.848 431.488C640.179 431.488 637.107 433.024 634.632 436.096C632.243 439.083 631.048 443.307 631.048 448.768V480H614.28V447.744C614.28 436.907 610.611 431.488 603.272 431.488C599.347 431.488 596.147 433.024 593.672 436.096C591.283 439.083 590.088 443.307 590.088 448.768V480H573.32ZM745.435 448.128C745.435 450.091 745.307 452.096 745.051 454.144H701.147C702.171 457.899 704.134 460.843 707.035 462.976C709.936 465.109 713.478 466.176 717.659 466.176C723.974 466.176 729.051 463.829 732.891 459.136L743.771 469.248C737.627 477.184 728.539 481.152 716.507 481.152C706.864 481.152 698.971 478.165 692.827 472.192C686.768 466.219 683.739 458.368 683.739 448.64C683.739 439.168 686.683 431.445 692.571 425.472C698.544 419.499 706.182 416.512 715.483 416.512C724.272 416.512 731.44 419.499 736.987 425.472C742.619 431.36 745.435 438.912 745.435 448.128ZM715.355 431.104C711.942 431.104 708.955 432.085 706.395 434.048C703.92 435.925 702.214 438.613 701.275 442.112H728.795C726.918 434.773 722.438 431.104 715.355 431.104ZM784.813 481.152C776.109 481.152 768.941 478.165 763.309 472.192C757.677 466.219 754.861 458.453 754.861 448.896C754.861 439.509 757.677 431.787 763.309 425.728C768.941 419.584 775.981 416.512 784.429 416.512C792.365 416.512 798.68 419.243 803.373 424.704H803.629V385.792H820.269V480H804.269V472.32H804.141C799.618 478.208 793.176 481.152 784.813 481.152ZM776.365 461.312C779.352 464.469 783.192 466.048 787.885 466.048C792.578 466.048 796.461 464.469 799.533 461.312C802.69 458.155 804.269 454.059 804.269 449.024C804.269 443.989 802.733 439.808 799.661 436.48C796.589 433.152 792.664 431.488 787.885 431.488C783.277 431.488 779.437 433.109 776.365 436.352C773.378 439.509 771.885 443.733 771.885 449.024C771.885 453.973 773.378 458.069 776.365 461.312ZM846.289 408.96C843.217 408.96 840.657 407.979 838.609 406.016C836.646 403.968 835.665 401.493 835.665 398.592C835.665 395.776 836.646 393.387 838.609 391.424C840.657 389.376 843.217 388.352 846.289 388.352C849.276 388.352 851.793 389.376 853.841 391.424C855.889 393.387 856.913 395.776 856.913 398.592C856.913 401.493 855.889 403.968 853.841 406.016C851.793 407.979 849.276 408.96 846.289 408.96ZM837.713 480V417.408H854.481V480H837.713ZM892.169 481.152C882.356 481.152 873.908 478.08 866.825 471.936L874.889 460.288C880.094 465.067 885.897 467.456 892.297 467.456C894.686 467.456 896.521 466.987 897.801 466.048C899.166 465.109 899.849 463.872 899.849 462.336C899.849 461.056 899.038 459.989 897.417 459.136C895.881 458.197 892.937 457.003 888.585 455.552C882.441 453.504 877.662 450.987 874.249 448C870.921 444.928 869.257 440.619 869.257 435.072C869.257 429.525 871.39 425.045 875.657 421.632C879.924 418.219 885.342 416.512 891.913 416.512C900.361 416.512 907.956 419.115 914.697 424.32L906.505 436.736C901.982 432.299 896.99 430.08 891.529 430.08C889.993 430.08 888.628 430.464 887.433 431.232C886.238 432 885.641 433.152 885.641 434.688C885.641 436.821 888.713 439.04 894.857 441.344C898.27 442.624 900.788 443.605 902.409 444.288C904.03 444.885 905.95 445.824 908.169 447.104C910.388 448.299 911.924 449.493 912.777 450.688C913.716 451.883 914.526 453.419 915.209 455.296C915.977 457.088 916.361 459.221 916.361 461.696C916.361 467.499 914.27 472.192 910.089 475.776C905.993 479.36 900.02 481.152 892.169 481.152ZM934.372 505.344L945.508 476.16L920.42 417.408H938.34L953.572 455.808H953.828L968.036 417.408H985.06L951.396 505.344H934.372ZM995.445 480V417.408H1012.21V425.472H1012.47C1017.5 419.499 1024.16 416.512 1032.44 416.512C1047.54 416.512 1055.09 425.301 1055.09 442.88V480H1038.33V447.104C1038.33 441.387 1037.34 437.376 1035.38 435.072C1033.42 432.683 1030.39 431.488 1026.29 431.488C1021.94 431.488 1018.49 432.981 1015.93 435.968C1013.45 438.869 1012.21 443.093 1012.21 448.64V480H995.445ZM1099.5 481.152C1090.11 481.152 1082.39 478.165 1076.33 472.192C1070.27 466.219 1067.24 458.453 1067.24 448.896C1067.24 439.253 1070.27 431.445 1076.33 425.472C1082.39 419.499 1090.28 416.512 1100.01 416.512C1105.13 416.512 1110.03 417.493 1114.73 419.456C1119.42 421.333 1123.35 424.107 1126.5 427.776L1115.5 438.144C1111.91 433.707 1107.13 431.488 1101.16 431.488C1096.12 431.488 1092.03 433.109 1088.87 436.352C1085.8 439.509 1084.26 443.648 1084.26 448.768C1084.26 453.973 1085.8 458.155 1088.87 461.312C1092.03 464.469 1096.12 466.048 1101.16 466.048C1107.3 466.048 1112.21 463.787 1115.88 459.264L1126.76 469.76C1120.62 477.355 1111.53 481.152 1099.5 481.152Z" fill="#111827"/>
</svg>
