<svg width="203" height="41" viewBox="0 0 203 41" fill="none" xmlns="http://www.w3.org/2000/svg">
<g clip-path="url(#clip0_17_432)">
<path d="M13.8593 5.93408H6.25024V19.9604H13.8593V5.93408Z" fill="#FA65A9"/>
<path d="M35.0562 12.4077H21.1968V19.9603H35.0562V12.4077Z" fill="#00D9F8"/>
<path d="M28.8059 27.2437H21.1968V41.0002H28.8059V27.2437Z" fill="#06A9F6"/>
<path d="M13.8594 27.2437H0V34.7963H13.8594V27.2437Z" fill="#FDD100"/>
<path d="M48.1873 33.717V16.8337H52.744V19.0433H52.7788C54.1471 17.4091 55.8398 16.592 57.8573 16.592C60.2227 16.592 61.8923 17.4781 62.8663 19.2505H62.9359C64.3272 17.4781 66.31 16.592 68.884 16.592C72.8725 16.592 74.8669 19.0433 74.8669 23.9461V33.717H70.3102V25.0164C70.3102 22.0932 69.3245 20.6316 67.3535 20.6316C66.3564 20.6316 65.5216 21.0459 64.849 21.8745C64.1998 22.6801 63.8751 23.8195 63.8751 25.2926V33.717H59.3183V25.0164C59.3183 22.0932 58.3212 20.6316 56.3268 20.6316C55.2602 20.6316 54.3906 21.0459 53.718 21.8745C53.0688 22.6801 52.744 23.8195 52.744 25.2926V33.717H48.1873ZM94.9601 25.12C94.9601 25.6494 94.9254 26.1903 94.8558 26.7427H82.9247C83.203 27.7556 83.7364 28.5497 84.5248 29.125C85.3132 29.7004 86.2757 29.9882 87.4119 29.9882C89.128 29.9882 90.5077 29.3551 91.5513 28.0892L94.5079 30.8168C92.8383 32.9575 90.3686 34.0278 87.0988 34.0278C84.4783 34.0278 82.3334 33.2221 80.6637 31.6109C79.0172 29.9998 78.194 27.8821 78.194 25.2581C78.194 22.7031 78.9941 20.62 80.5942 19.0088C82.2173 17.3976 84.293 16.592 86.8206 16.592C89.209 16.592 91.1569 17.3976 92.6644 19.0088C94.1949 20.597 94.9601 22.6341 94.9601 25.12ZM86.7858 20.528C85.8583 20.528 85.0466 20.7927 84.3509 21.3221C83.6783 21.8285 83.2147 22.5535 82.9595 23.4972H90.4382C89.9281 21.5177 88.7106 20.528 86.7858 20.528ZM105.661 34.0278C103.296 34.0278 101.348 33.2221 99.8175 31.6109C98.2869 29.9998 97.5217 27.905 97.5217 25.3271C97.5217 22.7952 98.2869 20.7121 99.8175 19.0779C101.348 17.4206 103.261 16.592 105.557 16.592C107.714 16.592 109.43 17.3286 110.705 18.8017H110.775V8.30566H115.297V33.717H110.949V31.6455H110.914C109.685 33.2337 107.934 34.0278 105.661 34.0278ZM103.365 28.6762C104.177 29.5278 105.221 29.9537 106.496 29.9537C107.771 29.9537 108.827 29.5278 109.661 28.6762C110.519 27.8246 110.949 26.7197 110.949 25.3617C110.949 24.0036 110.531 22.8758 109.696 21.9781C108.861 21.0804 107.795 20.6316 106.496 20.6316C105.244 20.6316 104.2 21.0689 103.365 21.9436C102.554 22.7952 102.148 23.9346 102.148 25.3617C102.148 26.6967 102.554 27.8014 103.365 28.6762ZM122.368 14.5549C121.533 14.5549 120.837 14.2902 120.281 13.7608C119.747 13.2084 119.48 12.5409 119.48 11.7583C119.48 10.9987 119.747 10.3542 120.281 9.82482C120.837 9.2724 121.533 8.99619 122.368 8.99619C123.179 8.99619 123.863 9.2724 124.42 9.82482C124.976 10.3542 125.255 10.9987 125.255 11.7583C125.255 12.5409 124.976 13.2084 124.42 13.7608C123.863 14.2902 123.179 14.5549 122.368 14.5549ZM120.037 33.717V16.8337H124.594V33.717H120.037ZM134.836 34.0278C132.169 34.0278 129.873 33.1991 127.948 31.5419L130.14 28.4C131.554 29.6891 133.131 30.3335 134.87 30.3335C135.52 30.3335 136.018 30.2069 136.366 29.9537C136.737 29.7004 136.923 29.3667 136.923 28.9524C136.923 28.6071 136.702 28.3193 136.262 28.0892C135.844 27.836 135.044 27.5139 133.862 27.1225C132.192 26.5701 130.893 25.8911 129.966 25.0855C129.061 24.2568 128.609 23.0944 128.609 21.5983C128.609 20.1021 129.189 18.8937 130.348 17.973C131.508 17.0523 132.98 16.592 134.766 16.592C137.062 16.592 139.126 17.294 140.958 18.6981L138.732 22.0471C137.502 20.8502 136.146 20.2518 134.662 20.2518C134.244 20.2518 133.873 20.3553 133.549 20.5625C133.224 20.7697 133.062 21.0804 133.062 21.4947C133.062 22.0701 133.896 22.6686 135.566 23.2901C136.494 23.6353 137.178 23.9 137.618 24.0842C138.059 24.2453 138.581 24.4985 139.184 24.8438C139.787 25.166 140.204 25.4883 140.436 25.8105C140.691 26.1328 140.911 26.5471 141.097 27.0535C141.306 27.5368 141.41 28.1122 141.41 28.7798C141.41 30.3451 140.842 31.6109 139.705 32.5777C138.592 33.5444 136.969 34.0278 134.836 34.0278ZM146.304 40.5532L149.331 32.6812L142.513 16.8337H147.383L151.522 27.1916H151.592L155.453 16.8337H160.079L150.931 40.5532H146.304ZM162.901 33.717V16.8337H167.458V19.0088H167.528C168.896 17.3976 170.705 16.592 172.954 16.592C177.059 16.592 179.111 18.9628 179.111 23.7044V33.717H174.554V24.8438C174.554 23.3016 174.287 22.2198 173.754 21.5983C173.221 20.9538 172.397 20.6316 171.284 20.6316C170.102 20.6316 169.162 21.0344 168.467 21.84C167.794 22.6226 167.458 23.7619 167.458 25.2581V33.717H162.901ZM191.177 34.0278C188.626 34.0278 186.528 33.2221 184.881 31.6109C183.235 29.9998 182.412 27.905 182.412 25.3271C182.412 22.7261 183.235 20.62 184.881 19.0088C186.528 17.3976 188.673 16.592 191.316 16.592C192.708 16.592 194.041 16.8567 195.317 17.3861C196.592 17.8925 197.659 18.6406 198.517 19.6303L195.525 22.4269C194.551 21.23 193.253 20.6316 191.629 20.6316C190.261 20.6316 189.148 21.0689 188.29 21.9436C187.455 22.7952 187.038 23.9116 187.038 25.2926C187.038 26.6967 187.455 27.8246 188.29 28.6762C189.148 29.5278 190.261 29.9537 191.629 29.9537C193.299 29.9537 194.633 29.3438 195.63 28.1238L198.586 30.9549C196.917 33.0036 194.447 34.0278 191.177 34.0278Z" fill="#111827"/>
</g>
<defs>
<clipPath id="clip0_17_432">
<rect width="203" height="41" fill="white"/>
</clipPath>
</defs>
</svg>
